<svg xmlns="http://www.w3.org/2000/svg" viewBox="0 0 540 670" role="img" aria-label="SERVIYA">
<defs><linearGradient id="shield" x1="0" y1="0" x2="1" y2="1"><stop offset="0" stop-color="#0753a5"/><stop offset="1" stop-color="#18a8ff"/></linearGradient><linearGradient id="ring" x1="0" y1="0" x2="1" y2="1"><stop offset="0" stop-color="#aeb8d8"/><stop offset="1" stop-color="#ffffff"/></linearGradient></defs>
<rect width="540" height="670" rx="28" fill="#030d43"/>
<circle cx="270" cy="270" r="180" fill="#06144f" stroke="url(#ring)" stroke-width="13"/>
<path d="M385 160c34 10 52 18 67 27v67c0 67-31 122-86 153-23-13-43-28-59-45 39-25 63-59 63-108v-25l-45-10z" fill="url(#shield)"/>
<path d="M328 181H235c-40 0-67 27-67 61 0 33 21 54 59 61l54 10c12 2 18 8 18 17 0 12-10 19-28 19h-91l-35 53h133c42 0 70-27 70-64 0-36-22-58-60-66l-53-11c-12-2-18-7-18-15 0-9 9-15 25-15h96z" fill="#fff"/>
<path d="M270 90A180 180 0 0 1 450 270" fill="none" stroke="#8c9ac4" stroke-width="13" stroke-linecap="round"/>
<path d="M270 450A180 180 0 0 1 90 270" fill="none" stroke="#e8ebf5" stroke-width="13" stroke-linecap="round"/>
<text x="270" y="545" text-anchor="middle" fill="#7180b2" font-family="Arial,Helvetica,sans-serif" font-size="56" font-weight="800" letter-spacing="3">SERVIYA</text>
</svg>